<svg width="18" height="18" viewBox="0 0 18 18" fill="none"
  xmlns="http://www.w3.org/2000/svg">
  <path d="M4.5 15C5.325 15 6 14.325 6 13.5V8.25C6 7.425 5.325 6.75 4.5 6.75C3.675 6.75 3 7.425 3 8.25V13.5C3 14.325 3.675 15 4.5 15ZM12 11.25V13.5C12 14.325 12.675 15 13.5 15C14.325 15 15 14.325 15 13.5V11.25C15 10.425 14.325 9.75 13.5 9.75C12.675 9.75 12 10.425 12 11.25ZM9 15C9.825 15 10.5 14.325 10.5 13.5V4.5C10.5 3.675 9.825 3 9 3C8.175 3 7.5 3.675 7.5 4.5V13.5C7.5 14.325 8.175 15 9 15Z" fill="#272727"/>
</svg>
