<svg width="19" height="18" viewBox="0 0 19 18" fill="none"
  xmlns="http://www.w3.org/2000/svg">
  <path d="M14.0943 4.2825C14.0249 4.21297 13.9425 4.15781 13.8518 4.12017C13.761 4.08254 13.6638 4.06316 13.5656 4.06316C13.4673 4.06316 13.3701 4.08254 13.2793 4.12017C13.1886 4.15781 13.1062 4.21297 13.0368 4.2825L9.3693 7.9425L5.7018 4.275C5.63242 4.20547 5.55 4.15031 5.45927 4.11267C5.36854 4.07504 5.27128 4.05566 5.17305 4.05566C5.07483 4.05566 4.97756 4.07504 4.88683 4.11267C4.7961 4.15031 4.71369 4.20547 4.6443 4.275C4.3518 4.5675 4.3518 5.04 4.6443 5.3325L8.3118 9L4.6443 12.6675C4.3518 12.96 4.3518 13.4325 4.6443 13.725C4.9368 14.0175 5.4093 14.0175 5.7018 13.725L9.3693 10.0575L13.0368 13.725C13.3293 14.0175 13.8018 14.0175 14.0943 13.725C14.3868 13.4325 14.3868 12.96 14.0943 12.6675L10.4268 9L14.0943 5.3325C14.3793 5.0475 14.3793 4.5675 14.0943 4.2825Z" fill="#272727"/>
</svg>
