<svg width="18" height="18" viewBox="0 0 18 18" fill="none" xmlns="http://www.w3.org/2000/svg">
<path d="M6.75 12.15L4.125 9.52501C4.05635 9.45553 3.9746 9.40036 3.88448 9.36271C3.79436 9.32506 3.69767 9.30568 3.6 9.30568C3.50233 9.30568 3.40563 9.32506 3.31551 9.36271C3.22539 9.40036 3.14364 9.45553 3.075 9.52501C2.7825 9.81751 2.7825 10.2825 3.075 10.575L6.2175 13.7175C6.51 14.01 6.9825 14.01 7.275 13.7175L15.225 5.77501C15.5175 5.48251 15.5175 5.01751 15.225 4.72501C15.1564 4.65553 15.0746 4.60036 14.9845 4.56271C14.8944 4.52506 14.7977 4.50568 14.7 4.50568C14.6023 4.50568 14.5056 4.52506 14.4155 4.56271C14.3254 4.60036 14.2436 4.65553 14.175 4.72501L6.75 12.15Z" fill="black"/>
</svg>
