<svg width="18" height="18" viewBox="0 0 18 18" fill="none"
  xmlns="http://www.w3.org/2000/svg">
  <path fill-rule="evenodd" clip-rule="evenodd" d="M9.00579 2C5.13177 2 2 5.20832 2 9.17745C2 12.3502 4.00663 15.0358 6.79036 15.9864C7.1384 16.0578 7.26589 15.8319 7.26589 15.6419C7.26589 15.4755 7.25442 14.9052 7.25442 14.3109C5.30557 14.7388 4.89974 13.4553 4.89974 13.4553C4.58655 12.6235 4.1225 12.4097 4.1225 12.4097C3.48465 11.97 4.16896 11.97 4.16896 11.97C4.87651 12.0175 5.24778 12.7067 5.24778 12.7067C5.87402 13.7999 6.88315 13.491 7.28912 13.3009C7.34705 12.8374 7.53276 12.5166 7.72994 12.3384C6.1756 12.172 4.54023 11.5541 4.54023 8.79712C4.54023 8.01283 4.81844 7.37117 5.25926 6.87213C5.1897 6.69392 4.94606 5.95703 5.32895 4.97076C5.32895 4.97076 5.92048 4.78059 7.25427 5.70751C7.82531 5.55039 8.41422 5.47047 9.00579 5.4698C9.59733 5.4698 10.2003 5.55307 10.7572 5.70751C12.0911 4.78059 12.6826 4.97076 12.6826 4.97076C13.0655 5.95703 12.8217 6.69392 12.7522 6.87213C13.2046 7.37117 13.4714 8.01283 13.4714 8.79712C13.4714 11.5541 11.836 12.16 10.27 12.3384C10.5253 12.5641 10.7456 12.9919 10.7456 13.6692C10.7456 14.6317 10.7341 15.4042 10.7341 15.6418C10.7341 15.8319 10.8617 16.0578 11.2096 15.9865C13.9933 15.0357 16 12.3502 16 9.17745C16.0114 5.20832 12.8682 2 9.00579 2Z" fill="#24292F"/>
</svg>
