<svg width="18" height="18" viewBox="0 0 18 18" fill="none"
  xmlns="http://www.w3.org/2000/svg">
  <path d="M5.93999 5.655C5.33999 5.4 5.08499 4.6575 5.44499 4.1175C6.17249 3.0375 7.38749 2.25 8.99249 2.25C10.755 2.25 11.9625 3.0525 12.5775 4.0575C13.1025 4.92 13.41 6.5325 12.6 7.7325C11.7 9.06 10.8375 9.465 10.3725 10.32C10.26 10.5225 10.1925 10.6875 10.1475 11.025C10.08 11.5725 9.62999 12 9.07499 12C8.42249 12 7.88999 11.4375 7.96499 10.785C8.00999 10.4025 8.09999 10.005 8.30999 9.63C8.88749 8.5875 9.99749 7.9725 10.6425 7.05C11.325 6.0825 10.9425 4.275 9.00749 4.275C8.12999 4.275 7.55999 4.7325 7.20749 5.28C6.94499 5.7075 6.39749 5.8425 5.93999 5.655ZM10.5 15C10.5 15.825 9.82499 16.5 8.99999 16.5C8.17499 16.5 7.49999 15.825 7.49999 15C7.49999 14.175 8.17499 13.5 8.99999 13.5C9.82499 13.5 10.5 14.175 10.5 15Z" fill="#272727"/>
</svg>
