<svg width="18" height="18" viewBox="0 0 18 18" fill="none"
  xmlns="http://www.w3.org/2000/svg">
  <path d="M9.00002 3.75002V1.65752C9.00002 1.32002 8.59502 1.15502 8.36252 1.39502L5.51252 4.23752C5.36252 4.38752 5.36252 4.62002 5.51252 4.77002L8.35502 7.61252C8.59502 7.84502 9.00002 7.68002 9.00002 7.34252V5.25002C11.7975 5.25002 14.01 7.81502 13.395 10.7175C13.0425 12.42 11.6625 13.7925 9.96752 14.145C7.29002 14.7075 4.90502 12.87 4.54502 10.3875C4.49252 10.0275 4.17752 9.75002 3.81002 9.75002C3.36002 9.75002 3.00002 10.1475 3.06002 10.5975C3.52502 13.89 6.66002 16.3275 10.2075 15.6375C12.5475 15.18 14.43 13.2975 14.8875 10.9575C15.63 7.11002 12.705 3.75002 9.00002 3.75002Z" fill="#272727"/>
</svg>
