<svg width="18" height="18" viewBox="0 0 18 18" fill="none"
  xmlns="http://www.w3.org/2000/svg">
  <g clip-path="url(#clip0_50_28)">
    <path d="M14.355 9.70499C14.385 9.47999 14.4 9.24749 14.4 8.99999C14.4 8.75999 14.385 8.51999 14.3475 8.29499L15.87 7.10999C16.005 7.00499 16.0425 6.80249 15.96 6.65249L14.52 4.16249C14.43 3.99749 14.2425 3.94499 14.0775 3.99749L12.285 4.71749C11.91 4.43249 11.5125 4.19249 11.07 4.01249L10.8 2.10749C10.77 1.92749 10.62 1.79999 10.44 1.79999H7.55996C7.37996 1.79999 7.23746 1.92749 7.20746 2.10749L6.93746 4.01249C6.49496 4.19249 6.08996 4.43999 5.72246 4.71749L3.92996 3.99749C3.76496 3.93749 3.57746 3.99749 3.48746 4.16249L2.05496 6.65249C1.96496 6.80999 1.99496 7.00499 2.14496 7.10999L3.66746 8.29499C3.62996 8.51999 3.59996 8.76749 3.59996 8.99999C3.59996 9.23249 3.61496 9.47999 3.65246 9.70499L2.12996 10.89C1.99496 10.995 1.95746 11.1975 2.03996 11.3475L3.47996 13.8375C3.56996 14.0025 3.75746 14.055 3.92246 14.0025L5.71496 13.2825C6.08996 13.5675 6.48746 13.8075 6.92996 13.9875L7.19996 15.8925C7.23746 16.0725 7.37996 16.2 7.55996 16.2H10.44C10.62 16.2 10.77 16.0725 10.7925 15.8925L11.0625 13.9875C11.505 13.8075 11.91 13.5675 12.2775 13.2825L14.07 14.0025C14.235 14.0625 14.4225 14.0025 14.5125 13.8375L15.9525 11.3475C16.0425 11.1825 16.005 10.995 15.8625 10.89L14.355 9.70499ZM8.99996 11.7C7.51496 11.7 6.29996 10.485 6.29996 8.99999C6.29996 7.51499 7.51496 6.29999 8.99996 6.29999C10.485 6.29999 11.7 7.51499 11.7 8.99999C11.7 10.485 10.485 11.7 8.99996 11.7Z" fill="#272727"/>
  </g>
  <defs>
    <clipPath id="clip0_50_28">
      <rect width="18" height="18" fill="white"/>
    </clipPath>
  </defs>
</svg>
