<svg width="18" height="18" viewBox="0 0 18 18" fill="none"
  xmlns="http://www.w3.org/2000/svg">
  <path d="M4.5375 3.10501L4.245 2.81251C3.9525 2.52001 3.48 2.52751 3.195 2.81251L3.1875 2.82001C2.895 3.11251 2.895 3.58501 3.1875 3.87001L3.48 4.16251C3.7725 4.45501 4.2375 4.45501 4.53 4.16251L4.5375 4.15501C4.83 3.87001 4.83 3.39001 4.5375 3.10501ZM2.2575 7.87501H1.4925C1.08 7.87501 0.75 8.20501 0.75 8.61751V8.62501C0.75 9.03751 1.08 9.36751 1.4925 9.36751H2.25C2.67 9.37501 3 9.04501 3 8.63251V8.62501C3 8.20501 2.67 7.87501 2.2575 7.87501ZM9.0075 0.412506H9C8.58 0.412506 8.25 0.742506 8.25 1.15501V1.87501C8.25 2.28751 8.58 2.61751 8.9925 2.61751H9C9.42 2.62501 9.75 2.29501 9.75 1.88251V1.15501C9.75 0.742506 9.42 0.412506 9.0075 0.412506ZM14.8125 2.82001C14.52 2.52751 14.0475 2.52751 13.755 2.81251L13.4625 3.10501C13.17 3.39751 13.17 3.87001 13.4625 4.15501L13.47 4.16251C13.7625 4.45501 14.235 4.45501 14.52 4.16251L14.8125 3.87001C15.105 3.57751 15.105 3.11251 14.8125 2.82001ZM13.455 14.145L13.7475 14.4375C14.04 14.73 14.5125 14.73 14.805 14.4375C15.0975 14.145 15.0975 13.6725 14.805 13.38L14.5125 13.0875C14.22 12.795 13.7475 12.8025 13.4625 13.0875C13.1625 13.3875 13.1625 13.8525 13.455 14.145ZM15 8.61751V8.62501C15 9.03751 15.33 9.36751 15.7425 9.36751H16.5C16.9125 9.36751 17.2425 9.03751 17.2425 8.62501V8.61751C17.2425 8.20501 16.9125 7.87501 16.5 7.87501H15.7425C15.33 7.87501 15 8.20501 15 8.61751ZM9 4.12501C6.5175 4.12501 4.5 6.14251 4.5 8.62501C4.5 11.1075 6.5175 13.125 9 13.125C11.4825 13.125 13.5 11.1075 13.5 8.62501C13.5 6.14251 11.4825 4.12501 9 4.12501ZM8.9925 16.8375H9C9.4125 16.8375 9.7425 16.5075 9.7425 16.095V15.375C9.7425 14.9625 9.4125 14.6325 9 14.6325H8.9925C8.58 14.6325 8.25 14.9625 8.25 15.375V16.095C8.25 16.5075 8.58 16.8375 8.9925 16.8375ZM3.1875 14.43C3.48 14.7225 3.9525 14.7225 4.245 14.43L4.5375 14.1375C4.83 13.845 4.8225 13.3725 4.5375 13.0875L4.53 13.08C4.46061 13.0105 4.3782 12.9553 4.28747 12.9177C4.19674 12.88 4.09948 12.8607 4.00125 12.8607C3.90302 12.8607 3.80576 12.88 3.71503 12.9177C3.6243 12.9553 3.54189 13.0105 3.4725 13.08L3.18 13.3725C2.895 13.6725 2.895 14.1375 3.1875 14.43Z" fill="#272727"/>
</svg>
